
<svg width="428.000143px" height="407.001681px" viewBox="0 0 428.000143 407.001681" version="1.1" xmlns="http://www.w3.org/2000/svg" xmlns:xlink="http://www.w3.org/1999/xlink">
    <g id="Page-1" stroke="none" stroke-width="1" fill="none" fill-rule="evenodd">
        <path d="M277.625333,404.55148 C237.759894,394.151441 207.08945,369.659398 189.98575,334.559779 C186.384683,327.162194 184.908792,325.317576 178.541452,320.256142 C174.52299,317.05571 163.040499,307.636008 153.029808,299.316797 C143.023209,290.99622 133.581323,283.914035 132.056326,283.58225 C130.532693,283.246368 128.737616,282.809449 128.066508,282.601913 C125.327515,281.769036 120.19054,284.345493 114.169666,289.572137 C108.553913,294.451976 81.0275814,316.980615 37.7247609,352.133483 C30.132513,358.299503 21.8677934,364.656675 19.3688717,366.256891 C13.6248984,369.927011 8.26012822,370.118163 4.39716634,366.796213 C1.8655077,364.614348 1.56269077,363.515224 0.655604032,353.227146 C-1.24041186,331.706152 1.3703611,9.90571643 3.48598747,4.38551735 C5.18012542,-0.0355572569 4.04524396,0.000650375189 137.470201,0.000650375189 C273.960157,0.000650375189 269.404263,-0.174825203 271.866355,5.23887486 C272.6916,7.0520889 273.021698,28.5143717 273.021698,80.0353195 C273.021698,152.293538 273.021698,152.293538 275.324197,151.717351 C289.73119,148.112768 316.771923,148.298459 331.334417,152.111943 C344.234145,155.483047 363.092001,163.4773 371.450839,169.120382 C389.087879,181.014138 413.044517,208.791266 417.243033,222.215604 C417.945514,224.471199 419.837438,229.079329 421.441549,232.455894 C426.657639,243.459427 428.016223,253.182242 428,279.561229 C427.990306,302.212751 427.888003,303.407451 425.34134,310.794114 C423.887273,315.018575 422.139938,320.77908 421.457918,323.594477 C417.316691,340.731261 381.303302,384.630702 365.605927,391.681483 C341.368296,402.567594 322.095772,407.080149 300.131997,407.00065 C289.593422,406.962727 284.925676,406.456174 277.625333,404.55148 Z M309.701336,347.825478 C312.200384,346.563666 315.035002,344.146329 315.999428,342.459372 C318.643071,337.833183 319.900779,327.752315 319.910328,311.102123 C319.915784,297.114544 320.054924,296.054405 321.919661,295.464378 C323.017768,295.112815 332.203678,294.442392 342.333552,293.973642 C358.154488,293.239174 361.409252,292.803127 365.427917,290.859992 C371.592325,287.878518 373.473431,284.217084 372.903234,276.334167 C372.08204,264.964235 367.569568,263.255475 338.294425,263.255475 C320.119037,263.255475 320.119037,263.255475 319.719353,241.026603 C319.255556,215.48786 318.467101,212.134384 312.312241,209.56443 C305.295264,206.636101 299.092661,207.802527 292.921432,213.214964 C289.223332,216.456703 289.223332,216.456703 289.223332,239.728 C289.223332,263.004748 289.223332,263.004748 267.483527,263.468048 C238.272497,264.096228 235,265.550173 235,277.909388 C235,283.513958 235.271458,284.206183 238.852244,287.783133 C243.659364,292.583741 248.103631,293.532144 269.742492,294.383798 C278.438687,294.72446 286.548315,295.250442 287.763736,295.559763 C289.938125,296.102097 289.964043,296.363726 289.463415,312.145911 C288.759535,334.113154 291.07852,344.078197 297.840409,348.197481 C301.938192,350.693852 304.175331,350.624357 309.701336,347.825478 Z" id="bms" fill="#000000"></path>
    </g>
</svg>