<?xml version="1.0" encoding="UTF-8"?>
<svg width="456px" height="473px" viewBox="0 0 456 473" version="1.1" xmlns="http://www.w3.org/2000/svg" xmlns:xlink="http://www.w3.org/1999/xlink">
    <title>save-to-read</title>
    <g id="Page-1" stroke="none" stroke-width="1" fill="none" fill-rule="evenodd">
        <g id="save-to-read">
            <polygon id="plus" fill="#FF6F26" fill-rule="nonzero" points="344.473684 388 317.315789 388 317.315789 347.894737 277 347.894737 277 320.315789 317.315789 320.315789 317.315789 280 344.473684 280 344.473684 320.315789 385 320.315789 385 347.894737 344.473684 347.894737"></polygon>
            <path d="M301.437746,471.444379 C292.098171,469.935679 279.462704,466.742317 271.841278,463.964393 C264.081527,461.13441 264.552666,461.097968 260.624428,464.875444 C256.643148,468.707062 253.099726,470.298017 248.542263,470.298017 C241.545902,470.298017 245.889117,473.904736 152.927066,390.881474 C134.713855,374.612713 130.923943,372.75417 122.855299,376.129743 C120.572407,377.0814 94.4694394,401.276822 38.6972009,454.134417 C18.2905419,473.473679 9.5760321,475.43426 1.90572425,462.402592 C-0.922149253,457.599533 -0.46661097,21.8289241 2.37270299,15.8139076 C5.02168931,10.192465 9.95356725,5.22697881 15.4345872,2.65625426 C21.6384362,-0.25598412 291.31398,-1.09415069 298.971807,1.77331606 C306.183457,4.4741907 312.874045,11.6116216 315.190218,19.063495 C315.73,20.8033414 315.97025,51.1491361 315.913047,110.510071 C315.815283,213.812799 314.312423,202.078467 327.735202,202.802102 C440.978067,208.911867 496.343649,339.890752 422.342599,426.611318 C393.108066,460.874109 345.424232,478.557862 301.437746,471.444379 Z M343.527539,438.513579 C436.88042,417.363509 455.11949,292.315997 371.486963,246.824923 C302.111648,209.085933 217.878302,259.15165 218,338.058276 C218.102177,403.188032 280.176033,452.867598 343.527539,438.513579 Z" id="icon" fill="#FF6F26"></path>
            <g id="lines" transform="translate(86, 84)" stroke="#FFFFFF" stroke-linecap="square" stroke-width="20">
                <line x1="0.5" y1="0.5" x2="160.5" y2="0.5" id="Line"></line>
                <line x1="1" y1="53" x2="161" y2="53" id="Line"></line>
                <line x1="1" y1="106" x2="161" y2="106" id="Line"></line>
            </g>
        </g>
    </g>
</svg>