<?xml version="1.0" encoding="UTF-8"?>
<svg width="150px" height="150px" viewBox="0 0 150 150" version="1.1" xmlns="http://www.w3.org/2000/svg" xmlns:xlink="http://www.w3.org/1999/xlink">
    <title>save-to-read</title>
    <g id="Icons" stroke="none" stroke-width="1" fill="none" fill-rule="evenodd">
        <path d="M100.841234,149.710653 C97.3899616,149.298771 92.8089011,148.250636 89.4074233,147.099045 C87.4519941,146.437576 87.3046304,146.462793 85.204529,147.816122 C81.0514289,150.49627 82.2081332,151.193302 61.7481265,133.704775 C39.6132872,114.78468 45.2198378,114.516342 21.9128176,135.611591 C5.56419154,150.410272 3.21646532,151.695708 1.01946729,147.061543 C-0.707850918,143.421845 -0.0739850242,6.39874632 1.67890314,4.14276706 C4.08382534,1.04879722 3.14850305,1.15483923 32.206073,0.689935511 C111.063835,-0.565110563 103.530117,-4.11881135 103.869255,34.4927684 C104.1586,67.5248569 103.609518,64.5692589 109.547133,64.99666 C143.004755,67.3981237 161.312174,104.281995 142.353394,131.095753 C133.105815,144.171898 116.560031,151.592253 100.841234,149.710653 Z M115.991474,139.305344 C155.198269,130.635689 148.371607,74.942213 108.108967,75 C66.4143177,75.057877 60.676771,131.075212 101.477857,139.724947 C103.931762,140.24415 112.920359,139.985834 115.991474,139.305344 Z M103.484062,118.34507 L103.484062,111.690141 L89.4736842,111.690141 L89.4736842,103.309859 L103.484062,103.309859 L103.484062,90 L112.305411,90 L112.305411,103.309859 L126.315789,103.309859 L126.315789,111.690141 L112.305411,111.690141 L112.305411,125 L103.484062,125 L103.484062,118.34507 Z M86.8421053,62.5 L86.8421053,57.5 L23.6842105,57.5 L23.6842105,67.5 L86.8421053,67.5 L86.8421053,62.5 Z M86.8421053,45 L86.8421053,40 L23.6842105,40 L23.6842105,50 L86.8421053,50 L86.8421053,45 Z M86.8421053,27.5 L86.8421053,22.5 L23.6842105,22.5 L23.6842105,32.5 L86.8421053,32.5 L86.8421053,27.5 Z" id="save-to-read" fill="#FF6F26"></path>
    </g>
</svg>